<svg xmlns="http://www.w3.org/2000/svg" xmlns:xlink="http://www.w3.org/1999/xlink" version="1.1" x="0px" y="0px" viewBox="0 0 100 100" enable-background="new 0 0 100 100" xml:space="preserve">
<path d="M36.108,37.772l7.967,8.628l0.004-0.002c0.624,0.675,1.514,1.102,2.506,1.102c1.069,0,2.022-0.492,2.648-1.261l0.001,0.001  l14.798-18.171h-0.001c0.479-0.589,0.767-1.337,0.767-2.155c0-1.886-1.529-3.416-3.415-3.416c-1.068,0-2.022,0.492-2.648,1.261  l-0.001-0.001L46.423,38.876l-5.296-5.736l-0.003,0.002c-0.624-0.675-1.515-1.101-2.507-1.101c-1.886,0-3.415,1.529-3.415,3.414  c0,0.895,0.346,1.705,0.908,2.315L36.108,37.772z"/>
<path d="M92.5,7.5h-85C6.119,7.5,5,8.619,5,10v65c0,1.381,1.119,2.5,2.5,2.5h35l-5,9.999H31c-0.552,0-1,0.448-1,1.001v3  c0,0.552,0.448,1,1,1h38c0.552,0,1-0.448,1-1v-3c0-0.553-0.448-1.001-1-1.001h-6.5l-5-9.999h35c1.381,0,2.5-1.119,2.5-2.5V10  C95,8.619,93.881,7.5,92.5,7.5z M50,72.5c-1.381,0-2.5-1.12-2.5-2.5c0-1.381,1.119-2.5,2.5-2.5s2.5,1.119,2.5,2.5  C52.5,71.38,51.381,72.5,50,72.5z M90,62.5H10v-50h80V62.5z"/>
</svg>