<?xml version="1.0" encoding="UTF-8" standalone="no"?>
<!DOCTYPE svg PUBLIC "-//W3C//DTD SVG 1.1//EN" "http://www.w3.org/Graphics/SVG/1.1/DTD/svg11.dtd">
<svg width="100%" height="100%" viewBox="0 0 620 620" version="1.1" xmlns="http://www.w3.org/2000/svg" xmlns:xlink="http://www.w3.org/1999/xlink" xml:space="preserve" xmlns:serif="http://www.serif.com/" style="fill-rule:evenodd;clip-rule:evenodd;stroke-linejoin:round;stroke-miterlimit:2;">
    <g id="_-006885ff" serif:id="#006885ff">
    </g>
    <g id="_-ffffffff" serif:id="#ffffffff" transform="matrix(0.62,0,0,0.62,0,0)">
        <path d="M196.15,82.31C349.76,82.34 503.37,82.31 656.98,82.32C661.6,82.35 666.23,82.23 670.85,82.42C667.66,94.57 664.71,106.8 662.08,119.09C651.67,162.57 641.38,206.08 631.18,249.61C599.44,249.77 567.69,249.64 535.95,249.68C524.72,249.88 513.42,249.29 502.23,249.96C451.06,465.62 400.12,681.34 348.98,897.02C347.35,903.95 345.63,910.86 344.23,917.85C272.53,918.18 200.82,917.95 129.11,917.96C128.47,917.95 127.18,917.93 126.53,917.91C147.6,830.21 168.11,742.37 188.99,654.63C220.52,521.35 252.05,388.07 283.62,254.81C284.05,253.11 284.46,251.41 284.87,249.71C242.96,249.63 201.05,249.73 159.14,249.66C158.43,249.63 157.01,249.58 156.3,249.56C160.09,235.51 163.05,221.24 166.53,207.11C176.44,165.52 186.15,123.88 196.15,82.31Z" style="fill:white;fill-rule:nonzero;"/>
    </g>
    <g id="_-d6492bff" serif:id="#d6492bff" transform="matrix(0.62,0,0,0.62,0,0)">
        <path d="M682.73,82.17C689.4,91.66 695.04,101.85 701.32,111.61C779.3,237.33 857.27,363.05 935.25,488.76C937.5,492.47 939.9,496.1 942.05,499.88C857.06,636.67 772.28,773.58 687.35,910.41C685.87,912.69 684.73,915.25 682.7,917.12C682.57,848.39 682.69,779.67 682.64,710.94C682.69,707.76 682.69,704.58 682.48,701.41C588.36,701.66 494.24,701.38 400.12,701.55C430.47,571.99 461.42,442.57 491.91,313.04C493.11,308 494.15,302.92 495.67,297.96C558.01,298 620.35,298.07 682.69,297.93C682.64,226.01 682.56,154.09 682.73,82.17Z" style="fill:white;fill-rule:nonzero;"/>
    </g>
    <g id="_-1c292eff" serif:id="#1c292eff">
    </g>
</svg>
